<svg width="1318" height="420" viewBox="0 0 1318 420" fill="none" xmlns="http://www.w3.org/2000/svg">
<path d="M702.395 0H642.66V252.205H702.395V0Z" fill="white"/>
<path d="M740.744 252.205H818.611V202.7H740.744V252.205Z" fill="white"/>
<path d="M740.744 150.855H809.616V101.227H740.744V150.855Z" fill="white"/>
<path d="M740.744 49.5052H818.611V0H740.744V49.5052Z" fill="white"/>
<path d="M604.31 252.205V0H543.442V145.314H541.347L442.036 0H389.547V252.205H450.538V106.645H452.14L552.56 252.205H604.31Z" fill="white"/>
<path d="M918.538 0L964.62 79.6762H966.592L1013.17 0H1081.43L1005.28 126.103L1083.89 252.205H1013.91L966.592 171.667H964.62L917.306 252.205H847.813L926.054 126.103L849.784 0H918.538Z" fill="white"/>
<path d="M1104.72 0V49.5052H1181.35V252.205H1241.48V49.5052H1318V0H1104.72Z" fill="white"/>
<path d="M146.332 0L181.218 60.1253L69.7707 252.205H0L146.332 0Z" fill="white"/>
<path d="M114.103 252.205H292.665L203.384 98.3292L168.384 158.651L187.546 191.676H149.223L114.103 252.205Z" fill="white"/>
<path d="M415.216 371.067C414.58 368.75 413.648 366.58 412.421 364.558C411.194 362.514 409.671 360.73 407.853 359.208C406.058 357.664 403.978 356.46 401.615 355.596C399.274 354.733 396.661 354.301 393.774 354.301C389.229 354.301 385.161 355.483 381.571 357.845C377.98 360.208 375.139 363.616 373.049 368.068C370.981 372.521 369.947 377.882 369.947 384.152C369.947 390.399 370.992 395.749 373.083 400.202C375.173 404.654 378.037 408.073 381.673 410.459C385.332 412.821 389.513 414.003 394.218 414.003C398.513 414.003 402.308 413.049 405.603 411.14C408.898 409.232 411.466 406.506 413.307 402.962C415.171 399.418 416.08 395.204 416.034 390.32L418.079 390.967H395.717V385.242H422.238V390.967C422.238 396.919 421.034 402.065 418.625 406.404C416.216 410.743 412.909 414.093 408.705 416.456C404.501 418.819 399.672 420 394.218 420C388.127 420 382.798 418.535 378.23 415.604C373.662 412.651 370.106 408.494 367.56 403.132C365.038 397.748 363.777 391.422 363.777 384.152C363.777 378.677 364.504 373.736 365.958 369.329C367.413 364.922 369.469 361.151 372.128 358.016C374.81 354.881 377.98 352.484 381.639 350.826C385.298 349.145 389.343 348.304 393.774 348.304C397.592 348.304 401.081 348.906 404.24 350.11C407.421 351.314 410.216 352.972 412.625 355.085C415.057 357.175 417.045 359.595 418.591 362.343C420.159 365.069 421.216 367.977 421.761 371.067H415.216Z" fill="white"/>
<path d="M438.064 419.046V349.258H478.561V354.983H444.438V381.256H476.413V386.98H444.438V413.321H479.243V419.046H438.064Z" fill="white"/>
<path d="M549.431 349.258V419.046H543.227L501.98 360.605H501.434V419.046H495.06V349.258H501.23L542.613 407.767H543.158V349.258H549.431Z" fill="white"/>
<path d="M567.992 419.046V349.258H608.489V354.983H574.366V381.256H606.341V386.98H574.366V413.321H609.171V419.046H567.992Z" fill="white"/>
<path d="M624.988 419.046V349.258H647.52C652.474 349.258 656.61 350.156 659.928 351.95C663.269 353.722 665.78 356.187 667.462 359.345C669.166 362.48 670.019 366.08 670.019 370.147C670.019 374.213 669.166 377.803 667.462 380.915C665.78 384.027 663.28 386.458 659.962 388.207C656.644 389.956 652.531 390.831 647.622 390.831H628.431V385.004H647.452C651.088 385.004 654.111 384.402 656.519 383.198C658.951 381.994 660.758 380.279 661.94 378.052C663.144 375.826 663.746 373.191 663.746 370.147C663.746 367.103 663.144 364.445 661.94 362.173C660.735 359.879 658.917 358.107 656.485 356.857C654.076 355.608 651.031 354.983 647.35 354.983H631.362V419.046H624.988ZM655.77 387.56L672.95 419.046H665.587L648.577 387.56H655.77Z" fill="white"/>
<path d="M685.648 419.046H678.967L704.363 349.258H711.18L736.576 419.046H729.895L708.01 357.539H707.533L685.648 419.046ZM690.454 392.296H725.088V398.021H690.454V392.296Z" fill="white"/>
<path d="M736.159 354.983V349.258H786.78V354.983H764.657V419.046H758.282V354.983H736.159Z" fill="white"/>
<path d="M807.506 349.258V419.046H801.131V349.258H807.506Z" fill="white"/>
<path d="M883.301 384.152C883.301 391.422 882.006 397.748 879.415 403.132C876.824 408.494 873.257 412.651 868.711 415.604C864.189 418.535 858.985 420 853.099 420C847.213 420 841.997 418.535 837.452 415.604C832.93 412.651 829.373 408.494 826.783 403.132C824.215 397.748 822.931 391.422 822.931 384.152C822.931 376.882 824.215 370.567 826.783 365.206C829.373 359.822 832.941 355.664 837.486 352.734C842.032 349.781 847.236 348.304 853.099 348.304C858.985 348.304 864.189 349.781 868.711 352.734C873.257 355.664 876.824 359.822 879.415 365.206C882.006 370.567 883.301 376.882 883.301 384.152ZM877.097 384.152C877.097 377.905 876.052 372.555 873.961 368.102C871.87 363.627 869.018 360.208 865.405 357.845C861.791 355.483 857.69 354.301 853.099 354.301C848.531 354.301 844.441 355.483 840.827 357.845C837.214 360.208 834.35 363.616 832.237 368.068C830.146 372.521 829.101 377.882 829.101 384.152C829.101 390.399 830.146 395.749 832.237 400.202C834.328 404.654 837.18 408.073 840.793 410.459C844.406 412.821 848.508 414.003 853.099 414.003C857.69 414.003 861.791 412.821 865.405 410.459C869.041 408.096 871.904 404.689 873.995 400.236C876.086 395.761 877.12 390.399 877.097 384.152Z" fill="white"/>
<path d="M953.089 349.258V419.046H946.885L905.638 360.605H905.092V419.046H898.718V349.258H904.888L946.271 407.767H946.816V349.258H953.089Z" fill="white"/>
</svg>
